<?xml version="1.0" encoding="UTF-8"?>
<svg width="49px" height="79px" viewBox="0 0 49 79" version="1.1" xmlns="http://www.w3.org/2000/svg" xmlns:xlink="http://www.w3.org/1999/xlink">
    <title>Path</title>
    <g id="Page-1" stroke="none" stroke-width="1" fill="none" fill-rule="evenodd">
        <g id="vecteezy_musical-notes_85961" transform="translate(-88.423512, 0.400000)" fill="#000000" fill-rule="nonzero">
            <g id="Layer_1" transform="translate(-0.000000, 0.000000)">
                <path d="M131.723512,17.8092286 C122.904728,7.74963612 117.823512,5.9 117.823512,0 L115.323512,0 L115.323512,56 C111.523512,52.3 104.123512,52.2 97.6235123,56.1 C90.2235123,60.5 86.8235123,68.3 89.9235123,73.6 C93.0235123,78.9 101.623512,79.6 108.923512,75.2 C114.423512,71.9 117.723512,66.7 117.823512,62.1 L117.823512,20.3760853 C117.823512,20.3760853 125.523512,19.4061989 131.723512,29.1061989 C135.1541,34.438895 134.923052,39.3286232 136.690826,40.2463333 C137.569514,37.6602938 137.546889,24.4519581 131.723512,17.8092286 Z" id="Path"></path>
            </g>
        </g>
    </g>
</svg>