<?xml version="1.0" encoding="UTF-8"?>
<svg width="30px" height="78px" viewBox="0 0 30 78" version="1.1" xmlns="http://www.w3.org/2000/svg" xmlns:xlink="http://www.w3.org/1999/xlink">
    <title>Shape</title>
    <g id="Page-1" stroke="none" stroke-width="1" fill="none" fill-rule="evenodd">
        <g id="vecteezy_musical-notes_85961" transform="translate(-245.423512, -0.600000)" fill="#000000" fill-rule="nonzero">
            <g id="Layer_1" transform="translate(-0.000000, 0.000000)">
                <path d="M272.623512,1.13593325 L272.623512,56 C268.823512,52.3 261.423512,52.2 254.923512,56.1 C247.523512,60.5 244.123512,68.3 247.223512,73.6 C250.323512,78.9 258.923512,79.6 266.223512,75.2 C271.723512,71.9 275.023512,66.7 275.123512,62.1 L275.123512,1.13593325 L272.623512,1.13593325 Z M262.823512,69.8 C257.223512,73.1 252.823512,75.7 250.523512,71.7 C248.123512,67.7 252.023512,64.5 257.623512,61.2 C263.223512,57.9 268.423512,55.7 270.723512,59.7 C273.123512,63.6 268.423512,66.5 262.823512,69.8 Z" id="Shape"></path>
            </g>
        </g>
    </g>
</svg>