<?xml version="1.0" encoding="UTF-8"?>
<svg width="52px" height="78px" viewBox="0 0 52 78" version="1.1" xmlns="http://www.w3.org/2000/svg" xmlns:xlink="http://www.w3.org/1999/xlink">
    <title>Shape</title>
    <g id="Page-1" stroke="none" stroke-width="1" fill="none" fill-rule="evenodd">
        <g id="vecteezy_musical-notes_85961" transform="translate(-169.423512, -0.600000)" fill="#000000" fill-rule="nonzero">
            <g id="Layer_1" transform="translate(-0.000000, 0.000000)">
                <path d="M217.784917,49.0073716 C223.184917,38.0073716 221.610389,25.0577758 217.210389,18.5577758 C208.210389,5.1577758 199.423512,6.29641669 199.423512,0.9 L196.923512,0.9 L196.923512,55.9 C193.123512,52.2 185.723512,52.1 179.223512,56 C171.823512,60.4 168.423512,68.2 171.523512,73.5 C174.623512,78.8 183.223512,79.5 190.523512,75.1 C196.023512,71.8 199.323512,66.6 199.423512,62 L199.723512,26.6030432 C199.723512,26.6030432 202.859539,26.8151101 210.659539,35.3151101 C216.329481,41.408973 216.329481,48.677125 215.515311,53.1967886 C216.868072,50.2282681 215.629481,52.6437201 217.784917,49.0073716 Z M210.659539,27.3936613 C204.727402,20.4624391 202.178739,21.9708797 199.723512,18.5577758 C199.207773,17.840827 200.108569,12.8894845 199.723512,11.9 C201.023512,12.6 206.523512,15.7 213.323512,23 C220.223512,30.4 220.223512,41.6124624 216.362074,51.5207005 C217.784917,41.99734 217.507666,35.3951431 210.659539,27.3936613 Z" id="Shape"></path>
            </g>
        </g>
    </g>
</svg>